<?xml version="1.0" encoding="UTF-8"?>
<svg id="Layer_1" xmlns="http://www.w3.org/2000/svg" version="1.1" viewBox="0 0 64 64">
  <!-- Generator: Adobe Illustrator 30.4.0, SVG Export Plug-In . SVG Version: 2.1.4 Build 226)  -->
  <defs>
    <style>
      .st0 {
        opacity: .7;
      }

      .st0, .st1 {
        fill: none;
        stroke: #69a6ba;
        stroke-width: 1.5px;
      }

      .st0, .st1, .st2 {
        isolation: isolate;
      }

      .st3 {
        fill: #0f1f28;
      }

      .st4 {
        fill: #163346;
      }

      .st1 {
        opacity: .9;
      }

      .st2 {
        fill: #79adbe;
        opacity: .6;
      }

      .st5 {
        fill: #10222b;
      }

      .st6 {
        fill: #25323d;
        stroke: #3f6177;
        stroke-width: 1.2px;
      }
    </style>
  </defs>
  <rect class="st4" width="64" height="64"/>
  <path class="st6" d="M7,45l6.9-6.3,9-2,6.9-6.3,10.2-2.2,7-6,10.2-2.2-6.7,6.6-9,2-7.9,6.8-10.2,2.2-7,6-9.2,1.7-.2-.3Z"/>
  <ellipse class="st3" cx="13.8" cy="50.5" rx="5" ry="3"/>
  <ellipse class="st5" cx="47" cy="51" rx="6" ry="3.5"/>
  <ellipse class="st3" cx="53" cy="29.7" rx="5" ry="3"/>
  <ellipse class="st5" cx="14.8" cy="19.9" rx="2.3" ry="4.5" transform="translate(-9.1 13.2) rotate(-37.8)"/>
  <ellipse class="st5" cx="38.8" cy="10.3" rx="3.3" ry="6.2"/>
  <circle class="st2" cx="56.3" cy="41.4" r="1.5"/>
  <circle class="st2" cx="45.5" cy="24.7" r="1.5"/>
  <circle class="st2" cx="7.1" cy="4.7" r="1.5"/>
  <circle class="st2" cx="24.4" cy="30.3" r="1.5"/>
  <circle class="st2" cx="16.5" cy="59.1" r="1.5"/>
  <circle class="st2" cx="38.8" cy="47.5" r="1.5"/>
  <path class="st0" d="M2.3,44.1c-3-6.4,4.8-10.1,1.8-16.5-3-6.4-2.5-10.9,1.8-16.5,4.3-5.6,4.5-7.1,2.5-8.8"/>
  <path class="st1" d="M53.3,62.7c-3-5.6,4.6-8.7,1.6-14.2-3-5.6-2.6-9.5,1.6-14.2s4.3-6.1,2.3-7.6"/>
</svg>